<?xml version="1.0" encoding="UTF-8"?>
<svg version="1.1" xmlns="http://www.w3.org/2000/svg" width="512" height="512">
<path d="M0 0 C2.19141584 0.86749975 4.32385931 1.81685179 6.46102905 2.81051636 C7.26350571 3.16880524 8.06598236 3.52709412 8.89277649 3.89624023 C10.61787832 4.6684782 12.33998148 5.44744369 14.05929565 6.23248291 C16.80821191 7.48761379 19.56444301 8.72518273 22.32333374 9.95822144 C25.15665778 11.22468226 27.98951025 12.49207856 30.82000732 13.7648468 C38.39918824 17.17219656 46.01809773 20.47600133 53.66567993 23.72637939 C57.1415491 25.20449561 60.61370833 26.69127516 64.08602905 28.17770386 C64.82327209 28.49324722 65.56051514 28.80879059 66.32009888 29.13389587 C77.13311932 33.76425308 87.93839258 38.41250694 98.73629761 43.07800293 C101.15399766 44.12159363 103.57253016 45.16325803 105.99191284 46.20294189 C109.3926778 47.66473966 112.79044507 49.13330155 116.18759155 50.60348511 C117.21511032 51.04346329 118.24262909 51.48344147 119.30128479 51.93675232 C120.2504628 52.34916672 121.19964081 52.76158112 122.17758179 53.18649292 C123.00467148 53.54318054 123.83176117 53.89986816 124.68391418 54.2673645 C127.12871226 55.49431594 128.95371305 56.5053045 130.9414978 58.40036011 C131.44486237 61.07744694 131.44486237 61.07744694 131.44943237 64.37254333 C131.46635132 66.2455159 131.46635132 66.2455159 131.48361206 68.15632629 C131.47583391 69.54309312 131.46764118 70.92985768 131.45907593 72.31661987 C131.46449594 73.77552998 131.47161792 75.23443461 131.48031616 76.69332886 C131.49859138 80.66337723 131.49145856 84.63301082 131.47879982 88.60306668 C131.46866499 92.77069283 131.4780695 96.93828369 131.48434448 101.10591125 C131.49163162 108.12136174 131.482018 115.13664413 131.46298218 122.15206909 C131.44133842 130.22088128 131.44816865 138.28928717 131.4702878 146.35808903 C131.48856437 153.30702823 131.49093706 160.25584644 131.48053312 167.20480198 C131.47434849 171.34471217 131.47331904 175.48443307 131.48667908 179.62433052 C131.57504372 211.41569564 128.16357008 239.07419709 105.0039978 262.90036011 C97.41009972 270.40756729 88.70547405 276.3571512 79.9414978 282.40036011 C77.44705971 284.1417789 74.95577399 285.88764863 72.46444702 287.6335144 C70.78103871 288.8124215 69.09646477 289.9896659 67.41073608 291.16525269 C61.065222 295.59334201 54.78253743 300.10255601 48.5196228 304.64645386 C42.83145855 308.76962054 37.10078 312.82881077 31.35287476 316.86813354 C25.28248783 321.14148259 19.26491512 325.48594873 13.26766968 329.86129761 C11.87265057 330.87491668 10.47229632 331.88123702 9.0664978 332.87985229 C7.59127904 333.93542013 6.13391416 335.01621274 4.6914978 336.11618042 C1.21949587 338.65329827 -1.74857005 340.78825624 -6.12490845 341.10348511 C-11.15611786 340.20416267 -14.01635784 338.23733861 -17.9960022 335.15036011 C-19.49561031 334.03915396 -20.99562161 332.92849176 -22.4960022 331.81832886 C-23.63295532 330.96247192 -23.63295532 330.96247192 -24.7928772 330.08932495 C-28.30668125 327.46987491 -31.90300077 324.97188548 -35.4960022 322.46286011 C-42.14553587 317.78063047 -48.74230763 313.02780179 -55.32778931 308.256073 C-60.37910178 304.60048205 -65.45796286 300.98688945 -70.5585022 297.40036011 C-77.25380899 292.6917612 -83.90898518 287.93056667 -90.52798462 283.11520386 C-93.93901809 280.63634367 -97.35637444 278.17942246 -100.8475647 275.81442261 C-122.37996446 261.15168767 -137.04504124 241.40543456 -142.0585022 215.40036011 C-142.78639948 210.85818011 -143.19026242 206.48947925 -143.21913147 201.89091492 C-143.22917709 200.6249498 -143.23922272 199.35898468 -143.24957275 198.05465698 C-143.25560104 196.66964781 -143.26148618 195.28463801 -143.26724243 193.89962769 C-143.27679269 192.42726933 -143.28668435 190.95491316 -143.29689026 189.4825592 C-143.32810721 184.67002984 -143.34850686 179.85748396 -143.36709595 175.04489136 C-143.37039327 174.22505068 -143.37369059 173.40520999 -143.37708783 172.56052566 C-143.40783385 164.82702454 -143.43452953 157.09351928 -143.45150661 149.35997486 C-143.47345895 139.47846232 -143.51557145 129.59748969 -143.58494419 119.71619302 C-143.63212564 112.75978664 -143.65643126 105.80352641 -143.6637035 98.84696501 C-143.66866371 94.6939523 -143.68378153 90.5415504 -143.7234478 86.38871193 C-143.76023064 82.48718547 -143.76875228 78.58662101 -143.75544167 74.68495369 C-143.75549573 73.25302536 -143.76584131 71.82105517 -143.7871933 70.38928604 C-143.84454278 66.3270062 -143.84806142 62.39367726 -143.0585022 58.40036011 C-140.25285339 55.63014221 -140.25285339 55.63014221 -137.0585022 54.40036011 C-136.39636719 54.06053101 -135.73423218 53.7207019 -135.05203247 53.37057495 C-134.45797607 53.12001343 -133.86391968 52.8694519 -133.25186157 52.61129761 C-132.55808914 52.31498444 -131.86431671 52.01867126 -131.14952087 51.71337891 C-130.03712288 51.2490596 -130.03712288 51.2490596 -128.9022522 50.77536011 C-128.10405563 50.4360849 -127.30585907 50.09680969 -126.48347473 49.74725342 C-124.75278873 49.01228284 -123.02094779 48.28002716 -121.28808594 47.55020142 C-116.55651523 45.55702005 -111.83367794 43.54328927 -107.10928345 41.53317261 C-106.12208817 41.11383453 -105.13489288 40.69449646 -104.11778259 40.26245117 C-93.299698 35.66320765 -82.52190411 30.97238184 -71.7460022 26.27536011 C-67.92194441 24.60962578 -64.09767948 22.94436748 -60.27334595 21.27926636 C-59.34116241 20.87332748 -58.40897888 20.46738861 -57.44854736 20.04914856 C-45.99240299 15.062379 -34.52179415 10.10904718 -23.04946899 5.15963745 C-22.31659164 4.84321793 -21.58371429 4.5267984 -20.82862854 4.20079041 C-19.47000877 3.6142199 -18.1111859 3.02811952 -16.75212097 2.44258118 C-10.92469646 -0.07389762 -6.36553402 -1.8542745 0 0 Z " fill="#B399C9" transform="translate(261.0585021972656,0.599639892578125)"/>
<path d="M0 0 C2.19141584 0.86749975 4.32385931 1.81685179 6.46102905 2.81051636 C7.26350571 3.16880524 8.06598236 3.52709412 8.89277649 3.89624023 C10.61787832 4.6684782 12.33998148 5.44744369 14.05929565 6.23248291 C16.80821191 7.48761379 19.56444301 8.72518273 22.32333374 9.95822144 C25.15665778 11.22468226 27.98951025 12.49207856 30.82000732 13.7648468 C38.39918824 17.17219656 46.01809773 20.47600133 53.66567993 23.72637939 C57.1415491 25.20449561 60.61370833 26.69127516 64.08602905 28.17770386 C64.82327209 28.49324722 65.56051514 28.80879059 66.32009888 29.13389587 C77.13311932 33.76425308 87.93839258 38.41250694 98.73629761 43.07800293 C101.15399766 44.12159363 103.57253016 45.16325803 105.99191284 46.20294189 C109.3926778 47.66473966 112.79044507 49.13330155 116.18759155 50.60348511 C117.21511032 51.04346329 118.24262909 51.48344147 119.30128479 51.93675232 C120.2504628 52.34916672 121.19964081 52.76158112 122.17758179 53.18649292 C123.00467148 53.54318054 123.83176117 53.89986816 124.68391418 54.2673645 C127.12871226 55.49431594 128.95371305 56.5053045 130.9414978 58.40036011 C131.44486237 61.07744694 131.44486237 61.07744694 131.44943237 64.37254333 C131.46635132 66.2455159 131.46635132 66.2455159 131.48361206 68.15632629 C131.47583391 69.54309312 131.46764118 70.92985768 131.45907593 72.31661987 C131.46449594 73.77552998 131.47161792 75.23443461 131.48031616 76.69332886 C131.49859138 80.66337723 131.49145856 84.63301082 131.47879982 88.60306668 C131.46866499 92.77069283 131.4780695 96.93828369 131.48434448 101.10591125 C131.49163162 108.12136174 131.482018 115.13664413 131.46298218 122.15206909 C131.44133842 130.22088128 131.44816865 138.28928717 131.4702878 146.35808903 C131.48856437 153.30702823 131.49093706 160.25584644 131.48053312 167.20480198 C131.47434849 171.34471217 131.47331904 175.48443307 131.48667908 179.62433052 C131.57504372 211.41569564 128.16357008 239.07419709 105.0039978 262.90036011 C97.41009972 270.40756729 88.70547405 276.3571512 79.9414978 282.40036011 C77.44705971 284.1417789 74.95577399 285.88764863 72.46444702 287.6335144 C70.78103871 288.8124215 69.09646477 289.9896659 67.41073608 291.16525269 C61.065222 295.59334201 54.78253743 300.10255601 48.5196228 304.64645386 C42.83145855 308.76962054 37.10078 312.82881077 31.35287476 316.86813354 C25.28248783 321.14148259 19.26491512 325.48594873 13.26766968 329.86129761 C11.87265057 330.87491668 10.47229632 331.88123702 9.0664978 332.87985229 C7.59127904 333.93542013 6.13391416 335.01621274 4.6914978 336.11618042 C1.21949587 338.65329827 -1.74857005 340.78825624 -6.12490845 341.10348511 C-11.15611786 340.20416267 -14.01635784 338.23733861 -17.9960022 335.15036011 C-19.49561031 334.03915396 -20.99562161 332.92849176 -22.4960022 331.81832886 C-23.63295532 330.96247192 -23.63295532 330.96247192 -24.7928772 330.08932495 C-28.30668125 327.46987491 -31.90300077 324.97188548 -35.4960022 322.46286011 C-42.14553587 317.78063047 -48.74230763 313.02780179 -55.32778931 308.256073 C-60.37910178 304.60048205 -65.45796286 300.98688945 -70.5585022 297.40036011 C-77.25380899 292.6917612 -83.90898518 287.93056667 -90.52798462 283.11520386 C-93.93901809 280.63634367 -97.35637444 278.17942246 -100.8475647 275.81442261 C-122.37996446 261.15168767 -137.04504124 241.40543456 -142.0585022 215.40036011 C-142.78639948 210.85818011 -143.19026242 206.48947925 -143.21913147 201.89091492 C-143.22917709 200.6249498 -143.23922272 199.35898468 -143.24957275 198.05465698 C-143.25560104 196.66964781 -143.26148618 195.28463801 -143.26724243 193.89962769 C-143.27679269 192.42726933 -143.28668435 190.95491316 -143.29689026 189.4825592 C-143.32810721 184.67002984 -143.34850686 179.85748396 -143.36709595 175.04489136 C-143.37039327 174.22505068 -143.37369059 173.40520999 -143.37708783 172.56052566 C-143.40783385 164.82702454 -143.43452953 157.09351928 -143.45150661 149.35997486 C-143.47345895 139.47846232 -143.51557145 129.59748969 -143.58494419 119.71619302 C-143.63212564 112.75978664 -143.65643126 105.80352641 -143.6637035 98.84696501 C-143.66866371 94.6939523 -143.68378153 90.5415504 -143.7234478 86.38871193 C-143.76023064 82.48718547 -143.76875228 78.58662101 -143.75544167 74.68495369 C-143.75549573 73.25302536 -143.76584131 71.82105517 -143.7871933 70.38928604 C-143.84454278 66.3270062 -143.84806142 62.39367726 -143.0585022 58.40036011 C-140.25285339 55.63014221 -140.25285339 55.63014221 -137.0585022 54.40036011 C-136.39636719 54.06053101 -135.73423218 53.7207019 -135.05203247 53.37057495 C-134.45797607 53.12001343 -133.86391968 52.8694519 -133.25186157 52.61129761 C-132.55808914 52.31498444 -131.86431671 52.01867126 -131.14952087 51.71337891 C-130.03712288 51.2490596 -130.03712288 51.2490596 -128.9022522 50.77536011 C-128.10405563 50.4360849 -127.30585907 50.09680969 -126.48347473 49.74725342 C-124.75278873 49.01228284 -123.02094779 48.28002716 -121.28808594 47.55020142 C-116.55651523 45.55702005 -111.83367794 43.54328927 -107.10928345 41.53317261 C-106.12208817 41.11383453 -105.13489288 40.69449646 -104.11778259 40.26245117 C-93.299698 35.66320765 -82.52190411 30.97238184 -71.7460022 26.27536011 C-67.92194441 24.60962578 -64.09767948 22.94436748 -60.27334595 21.27926636 C-59.34116241 20.87332748 -58.40897888 20.46738861 -57.44854736 20.04914856 C-45.99240299 15.062379 -34.52179415 10.10904718 -23.04946899 5.15963745 C-22.31659164 4.84321793 -21.58371429 4.5267984 -20.82862854 4.20079041 C-19.47000877 3.6142199 -18.1111859 3.02811952 -16.75212097 2.44258118 C-10.92469646 -0.07389762 -6.36553402 -1.8542745 0 0 Z M-14.0741272 38.75973511 C-15.22904663 39.29276245 -16.38396606 39.82578979 -17.57388306 40.37496948 C-18.4855574 40.80845703 -18.4855574 40.80845703 -19.41564941 41.2507019 C-22.00154948 42.47976009 -24.60282467 43.67447928 -27.20387268 44.87106323 C-28.54158963 45.48661907 -29.87855098 46.1038195 -31.21476746 46.72262573 C-37.4168481 49.58911725 -43.69140063 52.26738319 -49.9960022 54.90036011 C-60.86096935 59.45688095 -71.67931123 64.11351978 -82.48403931 68.81051636 C-83.65845581 69.32098511 -84.83287231 69.83145386 -86.0428772 70.35739136 C-87.18820923 70.85577515 -88.33354126 71.35415894 -89.51358032 71.86764526 C-92.01420816 72.94883958 -94.51709406 74.02214459 -97.02529907 75.0854187 C-97.99502655 75.49735725 -97.99502655 75.49735725 -98.98434448 75.9176178 C-100.78850481 76.68295468 -102.59387965 77.44542669 -104.39932251 78.20773315 C-106.9301025 79.15335195 -106.9301025 79.15335195 -108.0585022 80.40036011 C-108.1654385 82.02388195 -108.20258527 83.65204254 -108.21240234 85.27905273 C-108.22100281 86.33576172 -108.22960327 87.3924707 -108.23846436 88.48120117 C-108.2427243 89.65093475 -108.24698425 90.82066833 -108.25137329 92.02584839 C-108.25955078 93.25035706 -108.26772827 94.47486572 -108.27615356 95.73648071 C-108.30108833 99.81454132 -108.31770517 103.8925645 -108.3319397 107.97067261 C-108.33730021 109.37726727 -108.34267773 110.78386186 -108.34807205 112.19045639 C-108.3697258 118.05119245 -108.38845334 123.91192573 -108.39969444 129.77269173 C-108.41586594 138.14820968 -108.4488473 146.52325858 -108.50609529 154.89859974 C-108.54501923 160.79689448 -108.56435447 166.6950651 -108.56961501 172.59348476 C-108.57324316 176.10916858 -108.58498587 179.62435293 -108.61771774 183.13989639 C-108.80642399 204.46263308 -107.78665777 221.84940391 -92.6835022 238.33786011 C-86.819101 243.88587742 -79.96219185 248.28368783 -73.3241272 252.84030151 C-69.73620042 255.31086747 -66.17849669 257.82375905 -62.6210022 260.33786011 C-61.57408203 261.07600952 -61.57408203 261.07600952 -60.50601196 261.82907104 C-54.5727363 266.01886497 -48.68608871 270.27161728 -42.80459595 274.53366089 C-36.90029751 278.80684563 -30.9616619 283.0292321 -24.98721313 287.2038269 C-21.85191098 289.39965022 -18.74812405 291.61237942 -15.72647095 293.96286011 C-14.76354126 294.70536011 -13.80061157 295.44786011 -12.8085022 296.21286011 C-11.59420532 297.18159058 -11.59420532 297.18159058 -10.3553772 298.16989136 C-7.38659409 299.76031088 -6.25223181 299.29843795 -3.0585022 298.40036011 C-0.96052929 297.310449 -0.96052929 297.310449 1.02352905 295.88082886 C1.78238403 295.35924194 2.54123901 294.83765503 3.3230896 294.30026245 C4.12528931 293.73516968 4.92748901 293.1700769 5.7539978 292.58786011 C6.59422485 292.00472046 7.4344519 291.42158081 8.30014038 290.82077026 C14.33356096 286.60563302 20.23790812 282.23461714 26.09555054 277.77975464 C31.22072308 273.89548057 36.47260782 270.23526617 41.7906189 266.62130737 C49.28659758 261.51440863 56.61502142 256.18135364 63.9468689 250.84274292 C65.702097 249.57347883 67.4673666 248.32154663 69.24227905 247.08004761 C82.45537982 237.75960309 89.93807054 227.82117953 94.9414978 212.40036011 C95.2714978 211.41036011 95.6014978 210.42036011 95.9414978 209.40036011 C96.03187326 207.64953196 96.06345607 205.89541598 96.06175232 204.14225769 C96.06312698 203.05270782 96.06450165 201.96315796 96.06591797 200.84059143 C96.06232269 199.64513199 96.05872742 198.44967255 96.05502319 197.21798706 C96.05524223 195.33001404 96.05524223 195.33001404 96.0554657 193.40390015 C96.05575291 189.95169431 96.0498685 186.49952314 96.04289174 183.04732537 C96.03664551 179.43984162 96.0360534 175.8323571 96.03486633 172.22486877 C96.03175677 165.39322092 96.02354842 158.56158904 96.01351684 151.72994822 C96.00234408 143.95251977 95.99684232 136.17509056 95.99182141 128.39765608 C95.98136551 112.39854817 95.9637733 96.3994562 95.9414978 80.40036011 C94.03623388 79.44154133 92.13025066 78.48415178 90.22396851 77.52735901 C89.16265213 76.99405818 88.10133575 76.46075735 87.00785828 75.91129589 C83.10112475 73.98626994 79.14075367 72.23697235 75.1289978 70.54489136 C73.9341275 70.03510239 73.9341275 70.03510239 72.71511841 69.51501465 C70.12537324 68.4108261 67.53350808 67.31171963 64.9414978 66.21286011 C61.21682256 64.62860398 57.49314702 63.04200686 53.7696228 61.45504761 C52.33299286 60.84332954 52.33299286 60.84332954 50.86734009 60.21925354 C43.76747613 57.19173893 36.68715992 54.12106319 29.6133728 51.03317261 C27.59908621 50.15572919 25.58476373 49.27836815 23.57040405 48.40109253 C20.64605522 47.12735726 17.72270379 45.8515681 14.80233765 44.56872559 C12.09609534 43.38028966 9.38638729 42.20010643 6.6758728 41.02145386 C5.87768127 40.66813995 5.07948975 40.31482605 4.2571106 39.95080566 C-2.53422924 37.01309625 -7.05585532 35.45166077 -14.0741272 38.75973511 Z " fill="#894B9D" transform="translate(261.0585021972656,0.599639892578125)"/>
<path d="M0 0 C4.25906028 2.46213424 6.8778543 6.30322561 9.30078125 10.48828125 C11.31428168 18.94498304 9.10275803 25.19322823 5.48828125 32.86328125 C4.76813843 34.44459839 4.76813843 34.44459839 4.03344727 36.05786133 C2.95206647 38.42545412 1.86460319 40.78910145 0.76660156 43.14892578 C-1.2535248 47.49188228 -3.24606805 51.84730967 -5.23828125 56.203125 C-7.43991235 61.01454885 -9.64529304 65.82411475 -11.8671875 70.6262207 C-14.97924191 77.3538212 -18.08463557 84.07834129 -21.03515625 90.87890625 C-21.46368896 91.85770752 -21.89222168 92.83650879 -22.33374023 93.8449707 C-23.0708668 95.5381466 -23.79630342 97.23651479 -24.50415039 98.94213867 C-30.81633873 113.35837228 -41.78745245 124.39257407 -52.83203125 135.26171875 C-54.23109517 136.65330007 -55.62926213 138.04578369 -57.02658081 139.43911743 C-60.66396721 143.06140639 -64.31320904 146.67150749 -67.965271 150.2789917 C-71.70690643 153.97932715 -75.43690361 157.69135585 -79.16796875 161.40234375 C-86.45886682 168.65065231 -93.76237467 175.886107 -101.07421875 183.11328125 C-100.14609375 183.48453125 -99.21796875 183.85578125 -98.26171875 184.23828125 C-94.42857834 186.49306973 -93.54163831 187.95777323 -92.07421875 192.11328125 C-91.69999695 195.45863342 -91.69999695 195.45863342 -91.7019043 199.14086914 C-91.69825363 199.81646378 -91.69460297 200.49205841 -91.69084167 201.18812561 C-91.68278597 203.40432473 -91.69630242 205.61978119 -91.7109375 207.8359375 C-91.71145665 209.38480122 -91.71093683 210.93366561 -91.70942688 212.48252869 C-91.70951638 215.7212819 -91.71990045 218.95978502 -91.73803711 222.19848633 C-91.76074253 226.34339645 -91.76126252 230.48794215 -91.75451946 234.63289738 C-91.75117354 237.82855959 -91.75782099 241.02413917 -91.7676487 244.21978569 C-91.77148881 245.74795537 -91.77265386 247.27613426 -91.77106285 248.80430794 C-91.77069075 250.94141191 -91.78335166 253.07805359 -91.79956055 255.21508789 C-91.80647163 257.03660118 -91.80647163 257.03660118 -91.81352234 258.89491272 C-92.13161609 262.82186712 -92.88828647 265.64724855 -95.38210678 268.73007393 C-97.50856718 270.4683369 -98.59577356 270.49215929 -101.31834412 270.5009613 C-102.61584595 270.51581825 -102.61584595 270.51581825 -103.93955994 270.53097534 C-104.885616 270.52647369 -105.83167206 270.52197205 -106.80639648 270.51733398 C-108.3043425 270.52762886 -108.3043425 270.52762886 -109.83255005 270.53813171 C-113.14111458 270.55646707 -116.44920796 270.5525525 -119.7578125 270.546875 C-122.05322932 270.55143362 -124.34864478 270.55673823 -126.64405823 270.5627594 C-131.45848123 270.57170381 -136.27273848 270.56925226 -141.0871582 270.55932617 C-147.26249864 270.54783613 -153.43726732 270.56804229 -159.61253262 270.59724331 C-164.35398505 270.61557339 -169.09529968 270.61531917 -173.83677864 270.60960579 C-176.11379867 270.60945218 -178.39082781 270.61552925 -180.66781425 270.62789726 C-183.84979172 270.64274446 -187.03070281 270.63217565 -190.21264648 270.61499023 C-191.15667831 270.6246582 -192.10071014 270.63432617 -193.073349 270.64428711 C-196.90174186 270.60090381 -199.34342575 270.55593437 -202.65821838 268.54811096 C-204.57097077 265.25911015 -204.63465974 262.35641661 -204.59179688 258.65429688 C-204.60231079 257.53652107 -204.60231079 257.53652107 -204.61303711 256.39616394 C-204.63061917 253.93690549 -204.61899449 251.47880107 -204.60546875 249.01953125 C-204.60816363 247.30846944 -204.61204601 245.59740911 -204.61706543 243.88635254 C-204.62296073 240.3018535 -204.61439674 236.71775341 -204.59570312 233.13330078 C-204.57291326 228.53961686 -204.58603621 223.94686771 -204.60999298 219.35321808 C-204.62445027 215.82042401 -204.61984536 212.28785141 -204.60948181 208.75505066 C-204.60681432 207.06137481 -204.6100851 205.36767882 -204.61940002 203.67402649 C-204.62956487 201.30623149 -204.61406754 198.93994808 -204.59179688 196.57226562 C-204.60394226 195.52325325 -204.60394226 195.52325325 -204.61633301 194.45304871 C-204.55752427 191.07650835 -204.29361642 189.38977146 -202.16687012 186.70959473 C-198.72601478 184.08484612 -196.73714977 184.00092159 -192.44921875 184.05078125 C-190.94488281 184.06431641 -190.94488281 184.06431641 -189.41015625 184.078125 C-188.25386719 184.09552734 -188.25386719 184.09552734 -187.07421875 184.11328125 C-187.09516602 183.11176025 -187.11611328 182.11023926 -187.13769531 181.07836914 C-187.21144934 177.27448488 -187.25649674 173.47065987 -187.29394531 169.66625977 C-187.31375896 168.03626802 -187.34081798 166.40634429 -187.37597656 164.77661133 C-187.68241818 150.18007587 -186.42633924 135.67648488 -179.26171875 122.61328125 C-178.91625 121.95585937 -178.57078125 121.2984375 -178.21484375 120.62109375 C-175.35827894 115.32650842 -172.10252237 110.59217812 -168.07421875 106.11328125 C-167.52894531 105.44167969 -166.98367188 104.77007812 -166.421875 104.078125 C-160.90987405 97.81832523 -153.9206079 94.77038873 -146.53027344 91.28515625 C-128.80732956 82.82888084 -112.48176417 73.44494078 -97.57421875 60.61328125 C-90.11793028 54.232419 -82.49924574 50.74013114 -72.63671875 50.90234375 C-64.78101697 51.54900213 -58.62898747 53.78269924 -52.6328125 58.90625 C-51.13923 60.31737894 -51.13923 60.31737894 -49.07421875 60.11328125 C-48.67411591 59.17486893 -48.67411591 59.17486893 -48.26593018 58.21749878 C-45.48272338 51.6929842 -42.69106814 45.17213213 -39.89453125 38.65332031 C-38.8526553 36.22162849 -37.81292007 33.78901827 -36.77539062 31.35546875 C-35.28169763 27.8530162 -33.78027827 24.35396388 -32.27734375 20.85546875 C-31.81676575 19.77087372 -31.35618774 18.68627869 -30.88165283 17.56881714 C-27.12996058 8.86960541 -24.49878092 3.06915866 -15.59375 -0.97265625 C-10.09622607 -2.96710679 -5.27729569 -2.16215416 0 0 Z " fill="#FCD6AC" transform="translate(494.07421875,241.88671875)"/>
<path d="M0 0 C6.85773259 5.61761711 10.15996648 15.33332574 13.48828125 23.328125 C14.14142807 24.87172195 14.14142807 24.87172195 14.80776978 26.44650269 C16.17967129 29.69318913 17.54116538 32.94411794 18.90234375 36.1953125 C19.8378533 38.41435283 20.774045 40.63310571 21.7109375 42.8515625 C23.99096218 48.25451758 26.2624879 53.6609826 28.52734375 59.0703125 C32.24343952 59.0703125 33.16128474 57.73540265 35.8515625 55.37890625 C42.2577212 50.37642801 50.65450234 49.20636854 58.52734375 50.0703125 C66.03885822 51.94017741 71.65059688 55.16114093 77.52734375 60.0703125 C92.85193089 72.67634608 108.78291418 82.16529215 126.96166992 90.21630859 C134.71347393 93.76543733 140.53441381 98.01772638 146.52734375 104.0703125 C147.10492432 104.64982666 147.68250488 105.22934082 148.27758789 105.82641602 C160.63735411 118.69541074 166.74417613 138.06363382 166.625 155.53125 C166.62287758 156.7171019 166.62287758 156.7171019 166.62071228 157.9269104 C166.61514879 160.43308416 166.60260319 162.93916608 166.58984375 165.4453125 C166.58482403 167.15234245 166.58026195 168.85937382 166.57617188 170.56640625 C166.56519134 174.73440998 166.54795214 178.90234571 166.52734375 183.0703125 C167.275 183.04710937 168.02265625 183.02390625 168.79296875 183 C169.7778125 182.98195313 170.76265625 182.96390625 171.77734375 182.9453125 C172.751875 182.92210937 173.72640625 182.89890625 174.73046875 182.875 C177.60904466 183.07601787 179.14518957 183.47869621 181.52734375 185.0703125 C183.92363907 188.66475549 183.82322476 191.26373442 183.81787109 195.41577148 C183.82458832 196.16080933 183.83130554 196.90584717 183.83822632 197.67346191 C183.85723392 200.13784441 183.86113175 202.60195501 183.86328125 205.06640625 C183.86970683 206.77889621 183.87643501 208.49138505 183.88345337 210.20387268 C183.89543272 213.79422552 183.89913348 217.38448209 183.89794922 220.97485352 C183.89774589 225.57634448 183.92505892 230.17721877 183.95949364 234.7785635 C183.98172585 238.31560606 183.98578791 241.85249928 183.98472977 245.38960457 C183.98709086 247.08609202 183.99594297 248.78258327 184.0113945 250.479002 C184.03098265 252.85159445 184.025246 255.22284511 184.01318359 257.59545898 C184.02442261 258.29637161 184.03566162 258.99728424 184.04724121 259.71943665 C184.00763132 262.78404388 183.65971277 264.84254283 182.11233521 267.50514221 C178.09591687 269.9370182 174.29250275 269.62750373 169.68164062 269.58789062 C168.18347557 269.59840454 168.18347557 269.59840454 166.65504456 269.60913086 C163.35177859 269.6267438 160.04936851 269.61507594 156.74609375 269.6015625 C154.45210607 269.60425645 152.15811951 269.60813806 149.86413574 269.61315918 C145.05563489 269.61905872 140.24743117 269.61047628 135.43896484 269.59179688 C129.27147521 269.56900745 123.1046818 269.58212804 116.93721771 269.60608673 C112.2000401 269.62053216 107.4630279 269.6159444 102.72584534 269.60557556 C100.45162372 269.60290482 98.17738714 269.60619018 95.90318298 269.61549377 C92.72606556 269.62563834 89.55007987 269.61018661 86.37304688 269.58789062 C85.43058609 269.59598755 84.48812531 269.60408447 83.5171051 269.61242676 C77.16303783 269.52970353 77.16303783 269.52970353 73.9744873 267.22546387 C71.32263278 263.27620265 71.39185812 259.95206565 71.36621094 255.30737305 C71.35876358 254.2824173 71.35876358 254.2824173 71.35116577 253.23675537 C71.33656471 250.97683706 71.32974523 248.71698897 71.32421875 246.45703125 C71.31846513 244.88385517 71.31270742 243.3106791 71.3069458 241.73750305 C71.29644134 238.43803583 71.2905952 235.13859292 71.28710938 231.83911133 C71.28162907 227.61907123 71.25760883 223.3993545 71.22913742 219.1794157 C71.21047737 215.92882866 71.20530363 212.67831895 71.2037735 209.42768288 C71.20075349 207.87240648 71.19274698 206.31713124 71.17958832 204.76190758 C71.16245853 202.58150295 71.16442458 200.40188088 71.17089844 198.22143555 C71.16542999 196.36303291 71.16542999 196.36303291 71.15985107 194.46708679 C71.5790898 190.59201824 72.34358802 188.30053362 74.52734375 185.0703125 C77.71484375 183.1953125 77.71484375 183.1953125 80.52734375 182.0703125 C79.74109116 181.29072174 78.95483856 180.51113098 78.14476013 179.70791626 C70.70732706 172.33150791 63.27798786 164.94703147 55.85633755 157.55474281 C52.04126703 153.75527523 48.2234792 149.9586271 44.39916992 146.16845703 C40.70314534 142.50521795 37.01466764 138.83452973 33.33113289 135.15873337 C31.93008365 133.76319333 30.52641279 132.3702798 29.11999321 130.98015213 C19.71915457 121.68382765 11.37777104 112.67042765 5.6328125 100.61328125 C5.3042778 99.94032516 4.9757431 99.26736908 4.63725281 98.57402039 C3.5879988 96.41190293 2.55487987 94.24282947 1.52734375 92.0703125 C1.18060608 91.33750061 0.83386841 90.60468872 0.47662354 89.84967041 C-2.10276995 84.37620011 -4.63558434 78.88173441 -7.16015625 73.3828125 C-7.94454598 71.67869524 -8.72897028 69.97459389 -9.51342773 68.27050781 C-14.40070343 57.6415073 -19.24537801 46.99360333 -24.03515625 36.3203125 C-24.31064301 35.70717194 -24.58612976 35.09403137 -24.8699646 34.46231079 C-32.29624633 17.91622128 -32.29624633 17.91622128 -29.7890625 9.87890625 C-27.08968725 3.97612304 -23.52624379 0.4346814 -17.53515625 -2.2421875 C-10.7249992 -3.77099827 -6.25670215 -2.73794097 0 0 Z " fill="#FCD6AC" transform="translate(38.47265625,242.9296875)"/>
<path d="M0 0 C1.43679611 -0.00744736 1.43679611 -0.00744736 2.90261841 -0.01504517 C6.08181468 -0.02968933 9.26096104 -0.03647276 12.44018555 -0.04199219 C14.64495343 -0.04774205 16.84972129 -0.05349981 19.05448914 -0.05926514 C23.68232456 -0.06978173 28.31014258 -0.07562 32.93798828 -0.07910156 C38.86988616 -0.08458579 44.80155445 -0.10860965 50.73338032 -0.13707352 C55.28955254 -0.15569209 59.8456694 -0.1609051 64.40187645 -0.16243744 C66.58875979 -0.16546657 68.77564209 -0.1735038 70.96248817 -0.18662262 C74.02204497 -0.20366554 77.08104008 -0.20180694 80.140625 -0.1953125 C81.04522964 -0.20452728 81.94983429 -0.21374207 82.8818512 -0.22323608 C87.59760544 -0.19185825 91.06714553 -0.10986767 94.7644043 3.16113281 C97.00490844 7.05920283 97.01739838 10.64167157 97.02319336 15.07519531 C97.026698 15.75064392 97.03020264 16.42609253 97.03381348 17.12200928 C97.04257957 19.3434899 97.03679994 21.56464923 97.0300293 23.78613281 C97.03137742 25.3364264 97.03331919 26.88671957 97.03582764 28.43701172 C97.03877196 31.68168168 97.03450357 34.92624132 97.02514648 38.17089844 C97.01375231 42.32366722 97.0203155 46.47617746 97.03229141 50.62893677 C97.03952873 53.82887713 97.03721349 57.0287565 97.03203583 60.22869873 C97.03070451 61.75966421 97.03232887 63.29063529 97.03699493 64.82159424 C97.04209103 66.96356819 97.03430706 69.10512715 97.02319336 71.24707031 C97.02160217 72.46442871 97.02001099 73.68178711 97.01837158 74.93603516 C96.70859549 78.86984162 95.95403759 81.69065104 93.45645428 84.7778635 C91.3300403 86.51623012 90.24287399 86.54001078 87.52027893 86.54881287 C86.65527771 86.5587175 85.79027649 86.56862213 84.89906311 86.5788269 C83.95300705 86.57432526 83.00695099 86.56982361 82.03222656 86.56518555 C80.53428055 86.57548042 80.53428055 86.57548042 79.006073 86.58598328 C75.69750847 86.60431863 72.38941509 86.60040406 69.08081055 86.59472656 C66.78539372 86.59928518 64.48997827 86.6045898 62.19456482 86.61061096 C57.38014181 86.61955537 52.56588457 86.61710382 47.75146484 86.60717773 C41.57612441 86.59568769 35.40135573 86.61589385 29.22609043 86.64509487 C24.484638 86.66342496 19.74332337 86.66317073 15.00184441 86.65745735 C12.72482438 86.65730374 10.44779524 86.66338081 8.17080879 86.67574883 C4.98883132 86.69059603 1.80792024 86.68002721 -1.37402344 86.6628418 C-2.31805527 86.67250977 -3.2620871 86.68217773 -4.23472595 86.69213867 C-8.06311881 86.64875537 -10.5048027 86.60378593 -13.81959534 84.59596252 C-15.73234773 81.30696172 -15.79603669 78.40426817 -15.75317383 74.70214844 C-15.76018311 73.95696457 -15.76719238 73.2117807 -15.77441406 72.4440155 C-15.79199612 69.98475705 -15.78037144 67.52665263 -15.7668457 65.06738281 C-15.76954058 63.356321 -15.77342296 61.64526068 -15.77844238 59.9342041 C-15.78433768 56.34970507 -15.77577369 52.76560498 -15.75708008 49.18115234 C-15.73429021 44.58746842 -15.74741317 39.99471927 -15.77136993 35.40106964 C-15.78582722 31.86827558 -15.78122231 28.33570297 -15.77085876 24.80290222 C-15.76819127 23.10922637 -15.77146206 21.41553039 -15.78077698 19.72187805 C-15.79094182 17.35408305 -15.7754445 14.98779965 -15.75317383 12.62011719 C-15.76127075 11.9207756 -15.76936768 11.22143402 -15.77770996 10.50090027 C-15.71890122 7.12435991 -15.45499337 5.43762302 -13.32824707 2.75744629 C-9.09148032 -0.47443838 -5.14028342 0.00630971 0 0 Z " fill="#40757E" transform="translate(305.235595703125,425.8388671875)"/>
<path d="M0 0 C1.2490789 -0.00845947 1.2490789 -0.00845947 2.52339172 -0.01708984 C3.88097847 -0.01101715 3.88097847 -0.01101715 5.26599121 -0.00482178 C6.22575363 -0.00832642 7.18551605 -0.01183105 8.17436218 -0.01544189 C11.34755685 -0.0242459 14.52052864 -0.01841468 17.69372559 -0.01165771 C19.89803103 -0.01300475 22.10233619 -0.0149456 24.30664062 -0.01745605 C28.92674589 -0.02040552 33.54677383 -0.01611533 38.16687012 -0.0067749 C44.09204514 0.00461947 50.01703897 -0.00194094 55.94220734 -0.01391983 C60.49405281 -0.02114319 65.04585526 -0.0188483 69.59770203 -0.01366425 C71.78260825 -0.01232907 73.96751837 -0.01397085 76.15242004 -0.01862335 C79.20470546 -0.02369631 82.2566965 -0.01596733 85.30895996 -0.00482178 C86.21401779 -0.00887024 87.11907562 -0.0129187 88.05155945 -0.01708984 C88.88427872 -0.0114502 89.71699799 -0.00581055 90.57495117 0 C91.29612877 0.00075405 92.01730637 0.0015081 92.76033783 0.002285 C95.17699548 0.3023287 96.72869458 0.95832288 98.78747559 2.25396729 C101.18377091 5.84841027 101.0833566 8.44738921 101.07800293 12.59942627 C101.08472015 13.34446411 101.09143738 14.08950195 101.09835815 14.8571167 C101.11736575 17.32149919 101.12126358 19.78560979 101.12341309 22.25006104 C101.12983867 23.96255099 101.13656685 25.67503984 101.14358521 27.38752747 C101.15556456 30.97788031 101.15926531 34.56813688 101.15808105 38.1585083 C101.15787773 42.75999926 101.18519075 47.36087355 101.21962547 51.96221828 C101.24185769 55.49926084 101.24591975 59.03615407 101.2448616 62.57325935 C101.2472227 64.2697468 101.2560748 65.96623806 101.27152634 67.66265678 C101.29111449 70.03524923 101.28537783 72.4064999 101.27331543 74.77911377 C101.28455444 75.4800264 101.29579346 76.18093903 101.30737305 76.90309143 C101.26776316 79.96769866 100.91984461 82.02619762 99.37246704 84.688797 C95.3560487 87.12067299 91.55263459 86.81115852 86.94177246 86.77154541 C85.94299576 86.77855469 84.94421906 86.78556396 83.91517639 86.79278564 C80.61191043 86.81039859 77.30950035 86.79873073 74.00622559 86.78521729 C71.71223791 86.78791124 69.41825134 86.79179285 67.12426758 86.79681396 C62.31576672 86.80271351 57.50756301 86.79413107 52.69909668 86.77545166 C46.53160704 86.75266224 40.36481363 86.76578282 34.19734955 86.78974152 C29.46017194 86.80418695 24.72315973 86.79959919 19.98597717 86.78923035 C17.71175555 86.78655961 15.43751898 86.78984496 13.16331482 86.79914856 C9.9861974 86.80929313 6.81021171 86.79384139 3.63317871 86.77154541 C2.21948753 86.7836908 2.21948753 86.7836908 0.77723694 86.79608154 C-5.57683034 86.71335831 -5.57683034 86.71335831 -8.76538086 84.40911865 C-11.41723539 80.45985744 -11.34801005 77.13572043 -11.37365723 72.49102783 C-11.37862213 71.807724 -11.38358704 71.12442017 -11.38870239 70.42041016 C-11.40330346 68.16049185 -11.41012294 65.90064376 -11.41564941 63.64068604 C-11.42140304 62.06750995 -11.42716074 60.49433389 -11.43292236 58.92115784 C-11.44342683 55.62169061 -11.44927296 52.32224771 -11.45275879 49.02276611 C-11.4582391 44.80272602 -11.48225933 40.58300928 -11.51073074 36.36307049 C-11.52939079 33.11248345 -11.53456453 29.86197373 -11.53609467 26.61133766 C-11.53911468 25.05606127 -11.54712119 23.50078602 -11.56027985 21.94556236 C-11.57740963 19.76515774 -11.57544358 17.58553567 -11.56896973 15.40509033 C-11.57261536 14.16615524 -11.57626099 12.92722015 -11.58001709 11.65074158 C-11.16759571 7.83868649 -10.28712491 5.46970065 -8.21252441 2.25396729 C-5.4100392 0.50458945 -3.27832903 0.00342777 0 0 Z " fill="#40757E" transform="translate(121.2125244140625,425.74603271484375)"/>
<path d="M0 0 C2.5 1.5 2.5 1.5 4 4 C4.58410845 9.25697606 3.95261268 11.67432406 0.85546875 15.984375 C-1.5024234 18.82439346 -3.98899661 21.54650937 -6.47265625 24.27636719 C-8.9043747 27.02060188 -11.13612211 29.91050973 -13.375 32.8125 C-17.35330665 37.92818147 -21.40113008 42.98042188 -25.5 48 C-29.54991424 52.9622445 -33.55805359 57.95154232 -37.5 63 C-41.97911268 68.73640746 -46.55344678 74.38982041 -51.15527344 80.02807617 C-54.73385157 84.42040296 -58.26087243 88.84885916 -61.75 93.3125 C-65.12490013 97.62118142 -68.5068597 101.92298465 -71.9375 106.1875 C-72.62714844 107.04730469 -73.31679687 107.90710938 -74.02734375 108.79296875 C-77.53401824 112.71627783 -77.53401824 112.71627783 -80 114 C-87.13036555 114.31040149 -91.42043354 110.10870241 -96.75 105.8125 C-98.60537953 104.35239698 -100.46218324 102.89410211 -102.3203125 101.4375 C-103.25907227 100.69757813 -104.19783203 99.95765625 -105.16503906 99.1953125 C-107.90421871 97.07417029 -110.68108128 95.02456335 -113.4921875 93 C-114.78817871 92.06643677 -114.78817871 92.06643677 -116.11035156 91.11401367 C-117.75104205 89.93861026 -119.39605015 88.76920357 -121.04589844 87.60668945 C-128.13353127 82.4930719 -128.13353127 82.4930719 -130 78 C-129.79411344 72.02928973 -129.79411344 72.02928973 -127.70654297 69.32348633 C-125.00108229 67.22530287 -122.73210714 67.41624678 -119.40332031 67.53662109 C-115.04637247 68.37667463 -112.1839254 70.99165391 -108.875 73.8125 C-107.40347429 75.00140065 -105.93079298 76.18887224 -104.45703125 77.375 C-103.72049316 77.97828125 -102.98395508 78.5815625 -102.22509766 79.203125 C-98.74768615 82.01130458 -95.16511881 84.66808079 -91.5625 87.3125 C-90.93005371 87.78598877 -90.29760742 88.25947754 -89.64599609 88.74731445 C-86.64156386 91.20108778 -86.64156386 91.20108778 -83 92 C-81.31532736 90.0360829 -79.74490234 88.06191296 -78.1875 86 C-77.1927216 84.70732004 -76.19657295 83.41569367 -75.19921875 82.125 C-74.67634277 81.44695312 -74.1534668 80.76890625 -73.61474609 80.0703125 C-70.96287876 76.67027697 -68.23067781 73.33681754 -65.5 70 C-61.44951579 65.03823125 -57.4419361 60.04844447 -53.5 55 C-49.0179989 49.25989332 -44.44043443 43.60306754 -39.8359375 37.9609375 C-36.34468737 33.67546933 -32.90243126 29.35623267 -29.5 25 C-25.38603718 19.74517117 -21.24412661 14.51369175 -17.0625 9.3125 C-16.51851563 8.62865234 -15.97453125 7.94480469 -15.4140625 7.24023438 C-7.8649839 -2.10669212 -7.8649839 -2.10669212 0 0 Z " fill="#3E334D" transform="translate(318,109)"/>
<path d="M0 0 C1.69129689 2.46432732 3.15584496 5.03521556 4.66015625 7.6171875 C10.11461034 16.06986941 18.00578281 23.14412988 25.12109375 30.18359375 C25.94706558 31.00577896 26.77303741 31.82796417 27.6240387 32.67506409 C30.22607505 35.26502195 32.83136686 37.85166498 35.4375 40.4375 C38.89739793 43.87082956 42.35398066 47.3074476 45.80859375 50.74609375 C46.6012413 51.53044296 47.39388885 52.31479218 48.21055603 53.12290955 C48.94214432 53.85119461 49.6737326 54.57947968 50.42749023 55.32983398 C51.07096909 55.96807602 51.71444794 56.60631805 52.37742615 57.26390076 C54.91027591 59.97396449 55.95571162 61.65834675 56.4375 65.375 C56 69 56 69 53.9375 71.9375 C51 74 51 74 47.8125 74.875 C37.19861809 72.4390271 26.89243545 58.11294832 19.32348633 50.5637207 C17.07757467 48.32750956 14.82118566 46.10223637 12.56445312 43.87695312 C-7.66509561 23.7954533 -7.66509561 23.7954533 -14 12 C-13.86729739 9.33611793 -13.30310587 8.33254134 -11.51171875 6.3671875 C-10.90972656 5.87476563 -10.30773437 5.38234375 -9.6875 4.875 C-9.09324219 4.37742187 -8.49898438 3.87984375 -7.88671875 3.3671875 C-5.35461209 1.5323276 -3.18181209 0 0 0 Z " fill="#F09473" transform="translate(82,295)"/>
<path d="M0 0 C5.30462144 0.33153884 9.2456412 3.46112316 13 7 C14.23828125 9.19921875 14.23828125 9.19921875 15 11 C13.86561772 12.79893866 12.71663877 14.58867216 11.5625 16.375 C10.92441406 17.37273437 10.28632813 18.37046875 9.62890625 19.3984375 C3.66602368 27.98609461 -4.18296528 35.33393579 -11.55859375 42.69140625 C-12.42895767 43.5627269 -13.29932159 44.43404755 -14.19606018 45.33177185 C-16.01579136 47.15217776 -17.83676275 48.97134472 -19.65893555 50.78930664 C-22.45804112 53.58300141 -25.25169891 56.38206554 -28.04492188 59.18164062 C-29.81999149 60.95605035 -31.59537079 62.73015035 -33.37109375 64.50390625 C-34.20748886 65.34232559 -35.04388397 66.18074493 -35.90562439 67.04457092 C-36.67725418 67.81304855 -37.44888397 68.58152618 -38.24389648 69.37329102 C-38.92290512 70.05150406 -39.60191376 70.7297171 -40.30149841 71.42848206 C-42.74526752 73.68954971 -43.9341438 73.99130201 -47.3125 74.4375 C-51 74 -51 74 -53.9375 71.3125 C-56.08086967 67.87011841 -56.51332422 66.88373227 -56 63 C-54.68603516 60.97460938 -54.68603516 60.97460938 -52.6640625 58.84375 C-51.84067383 57.97363281 -51.01728516 57.10351562 -50.16894531 56.20703125 C-42.15553453 48.04797002 -34.00250472 40.02445673 -25.84179688 32.01318359 C-23.37457736 29.58861803 -20.91718407 27.15442478 -18.4609375 24.71875 C-17.71597015 23.99240356 -16.97100281 23.26605713 -16.20346069 22.5177002 C-9.55347224 15.90001107 -3.84815117 8.60174968 0 0 Z " fill="#F09372" transform="translate(430,295)"/>
<path d="M0 0 C1.93359375 -0.01933594 1.93359375 -0.01933594 3.90625 -0.0390625 C8.31293196 0.77521569 9.79533396 2.11251311 12.5 5.625 C13.0625 9.1875 13.0625 9.1875 12.5 12.625 C10.63291495 14.98997439 9.17938569 16.28530715 6.5 17.625 C-5.72517356 18.70961616 -5.72517356 18.70961616 -10.875 15.5625 C-12.94098839 11.82782869 -13.25123045 9.83189051 -12.5 5.625 C-8.7284456 0.7433277 -6.08444031 -0.0608444 0 0 Z " fill="#2C3F50" transform="translate(328.5,460.375)"/>
<path d="M0 0 C1.93359375 -0.01933594 1.93359375 -0.01933594 3.90625 -0.0390625 C8.31293196 0.77521569 9.79533396 2.11251311 12.5 5.625 C13.0625 9.1875 13.0625 9.1875 12.5 12.625 C10.63291495 14.98997439 9.17938569 16.28530715 6.5 17.625 C-5.72517356 18.70961616 -5.72517356 18.70961616 -10.875 15.5625 C-12.94098839 11.82782869 -13.25123045 9.83189051 -12.5 5.625 C-8.7284456 0.7433277 -6.08444031 -0.0608444 0 0 Z " fill="#2C3F50" transform="translate(183.5,460.375)"/>
</svg>
